<svg xmlns="http://www.w3.org/2000/svg" xmlns:xlink="http://www.w3.org/1999/xlink" width="108" height="111" viewBox="0 0 108 111"><defs><filter id="a" x="0" y="0" width="108" height="111" filterUnits="userSpaceOnUse"><feOffset dy="3" input="SourceAlpha"/><feGaussianBlur stdDeviation="3" result="b"/><feFlood flood-opacity="0.161"/><feComposite operator="in" in2="b"/><feComposite in="SourceGraphic"/></filter></defs><g transform="translate(9 6)"><g transform="matrix(1, 0, 0, 1, -9, -6)" filter="url(#a)"><rect width="90" height="93" rx="20" transform="translate(9 6)" fill="#fff"/></g><g transform="translate(-72.455 -0.42)"><path d="M466.832,224.924a3.087,3.087,0,1,0-3.087-3.087A3.091,3.091,0,0,0,466.832,224.924Zm0-3.7a.617.617,0,1,1-.617.617A.618.618,0,0,1,466.832,221.219Z" transform="translate(-330.655 -180.365)" fill="#71b7bf"/><path d="M373.674,221.832a3.087,3.087,0,1,0-3.087,3.087A3.091,3.091,0,0,0,373.674,221.832Zm-3.087.617a.617.617,0,1,1,.617-.617A.618.618,0,0,1,370.587,222.449Z" transform="translate(-247.992 -180.36)" fill="#71b7bf"/><path d="M406.1,297.5h-2.469a3.7,3.7,0,0,1-7.408,0H393.75a6.174,6.174,0,0,0,12.347,0Z" transform="translate(-270.538 -248.002)" fill="#71b7bf"/><path d="M169.954,278.658a3.7,3.7,0,1,0-3.7-3.7A3.709,3.709,0,0,0,169.954,278.658Zm0-4.939a1.235,1.235,0,1,1-1.235,1.235A1.237,1.237,0,0,1,169.954,273.719Z" transform="translate(-75.141 -225.456)" fill="#71b7bf"/><path d="M107.469,71.27h40.943l-3.68-11.04a7.8,7.8,0,0,0-6.129-5.237l-7.288-1.215a13.43,13.43,0,0,0,6.194-8.255,5.573,5.573,0,0,0,4.888-5.513V33a2.225,2.225,0,0,0,1.116-1.922V28.847a2.222,2.222,0,0,0-1.157-1.944,16.779,16.779,0,0,0-14.472-15.752v-.166a2.235,2.235,0,0,0-2.233-2.233h-2.233a2.235,2.235,0,0,0-2.233,2.233v.166A16.779,16.779,0,0,0,106.714,26.9a2.222,2.222,0,0,0-1.157,1.944V31.08A2.225,2.225,0,0,0,106.674,33v7.009a5.571,5.571,0,0,0,4.889,5.512,13.427,13.427,0,0,0,6.194,8.255l-7.288,1.215a7.793,7.793,0,0,0-5.733,4.272L99.975,44.3v-1.39h-.011a4.133,4.133,0,0,0-3.338-3.94V32.2h-6.7v6.778a4.133,4.133,0,0,0-3.338,3.94h-.011V44.3L78.94,68.312a3.712,3.712,0,0,0-.176,1.132v.327A3.732,3.732,0,0,0,81,73.182v4.787h2.233V73.421a3.73,3.73,0,0,0,2.786-2.408l1.879-5.325H98.661l1.879,5.325a3.735,3.735,0,0,0,2.786,2.408v4.547h2.233V73.183a3.748,3.748,0,0,0,1.913-1.913Zm9.444-11.433,1.567-3.916.623-.1a5.462,5.462,0,0,0,.287.871l2.646,12.35h-.39L118,65.387l1.116-3.349Zm13.676-3.916,1.567,3.916-2.2,2.2,1.116,3.349-3.651,3.651h-.39l2.647-12.351a5.5,5.5,0,0,0,.287-.871Zm-5.841,13.116h-.428L122.3,59.619a5.36,5.36,0,0,0,4.465,0Zm2.8-13.086a3.33,3.33,0,0,1-6.035,0l-.151-.706a12.917,12.917,0,0,0,6.338,0Zm15.062,4.985,2.7,8.1h-5.351l-.936-4.684-2.189.439.848,4.246H130.58l3.048-3.048-1.116-3.349,2.265-2.265-1.61-4.025,5.069.845a5.57,5.57,0,0,1,4.38,3.741Zm-2.45-27.624v2.262a5.528,5.528,0,0,0-2.233-1.032v-1.23Zm-2.28,9.857c.021-.307.047-.613.047-.926V36.866a3.329,3.329,0,0,1-.047,6.3Zm2.225-16.555h-2.178v2.233h3.349V31.08H107.79V28.847H135.7V26.614h-4.215l2.22-10.93A14.549,14.549,0,0,1,140.11,26.614Zm-28.972,6.7v1.229a5.541,5.541,0,0,0-2.233,1.032V33.312Zm12.28-22.328h2.233V22.148h-2.233V10.984Zm0,13.4h2.233a2.235,2.235,0,0,0,2.233-2.233V13.4a14.321,14.321,0,0,1,3.774,1.138l-2.454,12.079h-9.339l-2.455-12.08a14.3,14.3,0,0,1,3.774-1.137v8.751a2.235,2.235,0,0,0,2.233,2.233Zm-8.053-8.7,2.22,10.93h-8.628A14.555,14.555,0,0,1,115.367,15.684ZM108.906,40.01a3.345,3.345,0,0,1,2.233-3.144v5.377c0,.312.026.619.047.926a3.343,3.343,0,0,1-2.28-3.158Zm4.466,2.233V33.312H135.7v8.931a11.164,11.164,0,1,1-22.328,0Zm-6.915,18.693a5.568,5.568,0,0,1,4.378-3.741l5.069-.845-1.61,4.025,2.265,2.265-1.116,3.349,3.048,3.048h-7.106l.85-4.247-2.189-.439-.938,4.685h-1.349a3.757,3.757,0,0,0-.144-.726l-1.766-5.55ZM94.393,34.428v4.466H92.16V34.428Zm-3.681,6.7h5.129a1.9,1.9,0,0,1,1.9,1.9,1.881,1.881,0,0,1-.046.413L96.06,50.8a1.888,1.888,0,0,1-1.855,1.488H92.349A1.89,1.89,0,0,1,90.492,50.8L88.857,43.44a1.861,1.861,0,0,1-.046-.412,1.9,1.9,0,0,1,1.9-1.9Zm1.635,13.4H94.2a4.166,4.166,0,0,0,.5-.042L96.3,58.989H90.257l1.591-4.508a4.175,4.175,0,0,0,.5.042ZM83.909,70.269A1.5,1.5,0,0,1,81,69.77v-.327a1.5,1.5,0,0,1,.07-.455L87.648,48.3l.664,2.984a4.116,4.116,0,0,0,1.467,2.349Zm4.773-6.815.788-2.233h7.614l.788,2.233Zm16.876,6.316a1.5,1.5,0,0,1-2.913.5L96.774,53.634a4.119,4.119,0,0,0,1.467-2.349L98.9,48.3l6.582,20.687a1.466,1.466,0,0,1,.071.455Z" transform="translate(3.691 3.669)" fill="#71b7bf"/></g></g></svg>