<svg xmlns="http://www.w3.org/2000/svg" xmlns:xlink="http://www.w3.org/1999/xlink" width="108" height="111" viewBox="0 0 108 111"><defs><filter id="a" x="0" y="0" width="108" height="111" filterUnits="userSpaceOnUse"><feOffset dy="3" input="SourceAlpha"/><feGaussianBlur stdDeviation="3" result="b"/><feFlood flood-opacity="0.161"/><feComposite operator="in" in2="b"/><feComposite in="SourceGraphic"/></filter></defs><g transform="translate(9 6)"><g transform="matrix(1, 0, 0, 1, -9, -6)" filter="url(#a)"><rect width="90" height="93" rx="20" transform="translate(9 6)" fill="#fff"/></g><g transform="translate(11 13)"><path d="M153.4,46.541a1.118,1.118,0,0,0,1.117-1.117v-7.26a1.118,1.118,0,0,0-1.117-1.117,26.232,26.232,0,0,1-20.784-10.126l-1.792-2.29a1.157,1.157,0,0,0-1.759,0l-1.792,2.29a26.638,26.638,0,0,1-4.313,4.366,1.109,1.109,0,0,0-.759-.38l-3.092-.206a14.473,14.473,0,0,0-.718-1.742l2.037-2.328a1.118,1.118,0,0,0-.05-1.526l-4.739-4.739a1.116,1.116,0,0,0-1.526-.05l-2.328,2.037a14.428,14.428,0,0,0-1.742-.718l-.206-3.091a1.119,1.119,0,0,0-1.115-1.044h-6.7a1.118,1.118,0,0,0-1.115,1.043l-.205,3.09a14.47,14.47,0,0,0-1.742.718l-2.329-2.036a1.115,1.115,0,0,0-1.525.05L90.367,25.1a1.115,1.115,0,0,0-.05,1.525l2.037,2.328a14.426,14.426,0,0,0-.718,1.742l-3.091.206a1.116,1.116,0,1,0,.149,2.228l3.857-.257a1.116,1.116,0,0,0,1-.814,12.171,12.171,0,0,1,1.12-2.717,1.116,1.116,0,0,0-.133-1.284l-1.854-2.117,3.26-3.26,2.119,1.854a1.118,1.118,0,0,0,1.284.133,12.208,12.208,0,0,1,2.717-1.12,1.118,1.118,0,0,0,.814-1l.188-2.815h4.612l.187,2.814a1.116,1.116,0,0,0,.814,1,12.171,12.171,0,0,1,2.717,1.12,1.117,1.117,0,0,0,1.284-.133l2.119-1.854,3.261,3.261-1.854,2.119a1.12,1.12,0,0,0-.133,1.284,12.207,12.207,0,0,1,1.12,2.717,1.118,1.118,0,0,0,1,.814l2.31.154a26.1,26.1,0,0,1-7.389,3.171,7.644,7.644,0,0,0,.074-.831,7.819,7.819,0,1,0-7.819,7.819v7.819h-2.305l-.187-2.814a1.116,1.116,0,0,0-.814-1,12.171,12.171,0,0,1-2.717-1.12,1.117,1.117,0,0,0-1.284.133L95.947,48.06,92.686,44.8,94.54,42.68a1.12,1.12,0,0,0,.133-1.284,12.208,12.208,0,0,1-1.12-2.717,1.118,1.118,0,0,0-1-.814l-2.815-.188V36.489a1.117,1.117,0,1,0-2.234,0v2.234a1.118,1.118,0,0,0,1.043,1.115l3.089.205a14.47,14.47,0,0,0,.718,1.742l-2.036,2.329a1.118,1.118,0,0,0,.05,1.526l4.739,4.739a1.115,1.115,0,0,0,1.526.05l2.328-2.037a14.428,14.428,0,0,0,1.742.718l.206,3.091a1.116,1.116,0,0,0,1.114,1.043h3.351v1.651A27.844,27.844,0,0,0,120.34,79.629l9.087,4.76a1.119,1.119,0,0,0,1.036,0l9.087-4.76a27.843,27.843,0,0,0,14.967-24.736v-5a1.117,1.117,0,1,0-2.234,0v5a25.62,25.62,0,0,1-13.77,22.757l-8.569,4.488-8.569-4.489a25.616,25.616,0,0,1-13.77-22.756V39.259A28.437,28.437,0,0,0,129.033,28.3l.912-1.164.912,1.165a28.439,28.439,0,0,0,21.426,10.963v6.164A1.118,1.118,0,0,0,153.4,46.54ZM106.49,37.047a1.118,1.118,0,0,0-1.117,1.117v2.792a5.585,5.585,0,1,1,5.585-5.585,5.479,5.479,0,0,1-.185,1.326,26.664,26.664,0,0,1-4.282.35Z" transform="translate(-87.502 -17.501)" fill="#71b7bf"/><path d="M263.617,149.333a1.118,1.118,0,0,0-1.117,1.117,23.407,23.407,0,0,0,12.481,20.73l7.1,3.76a1.118,1.118,0,0,0,1.045,0l7.1-3.76a23.4,23.4,0,0,0,12.481-20.73V138.211a1.118,1.118,0,0,0-1.117-1.117,21.578,21.578,0,0,1-17.145-8.386l-.962-1.235a1.157,1.157,0,0,0-1.763,0l-.962,1.237a21.581,21.581,0,0,1-17.145,8.385,1.118,1.118,0,0,0-1.117,1.117v7.26a1.117,1.117,0,1,0,2.234,0V139.3a23.785,23.785,0,0,0,17.791-9.221l.08-.1.079.1a23.786,23.786,0,0,0,17.792,9.223v11.148a21.176,21.176,0,0,1-11.292,18.756L282.6,172.69l-6.579-3.482a21.177,21.177,0,0,1-11.292-18.757,1.117,1.117,0,0,0-1.117-1.117Z" transform="translate(-240.162 -113.08)" fill="#71b7bf"/><path d="M317.8,237.832h7.48a7.745,7.745,0,0,0,4.308-1.3,5.519,5.519,0,0,1,3.07-.929h.221a1.118,1.118,0,0,0,1.117,1.117h5.585a1.118,1.118,0,0,0,1.117-1.117v-3.909a1.117,1.117,0,1,0-2.234,0v2.792H335.11v-13.4h3.351v6.143a1.117,1.117,0,1,0,2.234,0v-7.26a1.118,1.118,0,0,0-1.117-1.117h-5.585a1.118,1.118,0,0,0-1.117,1.117v1.117h-4.006l-1.688-1.688-1.042-4.167a1.116,1.116,0,0,0-1.436-.788,5.225,5.225,0,0,0-3.518,5.844l.32,1.916H317.8a2.791,2.791,0,0,0-2.233,4.468,2.788,2.788,0,0,0,0,3.351,2.788,2.788,0,0,0,0,3.351,2.791,2.791,0,0,0,2.233,4.468Zm0-13.4h5.026a1.117,1.117,0,0,0,1.1-1.3l-.536-3.218a3,3,0,0,1,.939-2.726l.762,3.048a1.114,1.114,0,0,0,.294.518l2.234,2.234a1.111,1.111,0,0,0,.79.329h4.468v10.052h-.22a7.745,7.745,0,0,0-4.308,1.3,5.519,5.519,0,0,1-3.07.929H317.8a.558.558,0,1,1,0-1.117h2.792a1.117,1.117,0,1,0,0-2.234H317.8a.558.558,0,1,1,0-1.117h2.792a1.117,1.117,0,1,0,0-2.234H317.8a.558.558,0,1,1,0-1.117h2.792a1.117,1.117,0,1,0,0-2.234H317.8a.558.558,0,0,1,0-1.117Z" transform="translate(-285.965 -189.246)" fill="#71b7bf"/><path d="M108.541,287.962l-2.26-.329-1.01-2.047a1.163,1.163,0,0,0-2,0l-1.01,2.047-2.26.329a1.117,1.117,0,0,0-.619,1.905l1.634,1.593-.384,2.251a1.117,1.117,0,0,0,1.621,1.177l2.02-1.062,2.02,1.062a1.117,1.117,0,0,0,1.621-1.177l-.386-2.251,1.634-1.593a1.117,1.117,0,0,0-.618-1.905Zm-3,2.309a1.114,1.114,0,0,0-.322.988l.1.6-.537-.283a1.123,1.123,0,0,0-.52-.128,1.105,1.105,0,0,0-.52.129l-.537.283.1-.6a1.115,1.115,0,0,0-.322-.988l-.434-.423.6-.087a1.116,1.116,0,0,0,.841-.611l.268-.545.268.544a1.115,1.115,0,0,0,.841.611l.6.087Z" transform="translate(-97.569 -250.866)" fill="#71b7bf"/><path d="M108.541,375.462l-2.26-.329-1.01-2.047a1.163,1.163,0,0,0-2,0l-1.01,2.047-2.26.329a1.117,1.117,0,0,0-.619,1.905l1.634,1.593-.384,2.251a1.117,1.117,0,0,0,1.621,1.177l2.02-1.062,2.02,1.062a1.117,1.117,0,0,0,1.621-1.177l-.386-2.251,1.634-1.593a1.117,1.117,0,0,0-.618-1.905Zm-3,2.309a1.114,1.114,0,0,0-.322.988l.1.6-.537-.283a1.123,1.123,0,0,0-.52-.128,1.106,1.106,0,0,0-.52.129l-.537.283.1-.6a1.115,1.115,0,0,0-.322-.988l-.434-.423.6-.087a1.116,1.116,0,0,0,.841-.611l.268-.544.268.544a1.115,1.115,0,0,0,.841.611l.6.087Z" transform="translate(-97.569 -327.197)" fill="#71b7bf"/><path d="M108.545,467.086l-2.26-.328-1.01-2.047a1.163,1.163,0,0,0-2,0l-1.009,2.047-2.26.329a1.117,1.117,0,0,0-.619,1.905l1.634,1.593-.385,2.25a1.117,1.117,0,0,0,1.621,1.177l2.02-1.062,2.02,1.062a1.117,1.117,0,0,0,1.621-1.177l-.386-2.251,1.634-1.593a1.117,1.117,0,0,0-.618-1.905Zm-3,2.309a1.114,1.114,0,0,0-.322.988l.1.6-.537-.283a1.116,1.116,0,0,0-1.039,0l-.537.283.1-.6A1.115,1.115,0,0,0,103,469.4l-.434-.423.6-.087a1.116,1.116,0,0,0,.841-.611l.268-.544.268.544a1.115,1.115,0,0,0,.841.611l.6.087Z" transform="translate(-97.572 -407.125)" fill="#71b7bf"/></g></g></svg>