<svg xmlns="http://www.w3.org/2000/svg" xmlns:xlink="http://www.w3.org/1999/xlink" width="108" height="111" viewBox="0 0 108 111"><defs><filter id="a" x="0" y="0" width="108" height="111" filterUnits="userSpaceOnUse"><feOffset dy="3" input="SourceAlpha"/><feGaussianBlur stdDeviation="3" result="b"/><feFlood flood-opacity="0.161"/><feComposite operator="in" in2="b"/><feComposite in="SourceGraphic"/></filter></defs><g transform="translate(9 6)"><g transform="matrix(1, 0, 0, 1, -9, -6)" filter="url(#a)"><path d="M20,0H70A20,20,0,0,1,90,20V73A20,20,0,0,1,70,93H20A20,20,0,0,1,0,73V20A20,20,0,0,1,20,0Z" transform="translate(9 6)" fill="#fff"/></g><g transform="translate(-62.916 3.238)"><path d="M189.577,25.6a1.093,1.093,0,0,1-.914-.489A31.814,31.814,0,0,0,137.111,23.2a1.1,1.1,0,1,1-1.732-1.348A34.007,34.007,0,0,1,190.488,23.9a1.1,1.1,0,0,1-.913,1.706Z" transform="translate(-53.553)" fill="#71b7bf"/><path d="M535.281,100.2h-5.213a1.1,1.1,0,1,1,0-2.195h4.107l-.029-3.746a1.1,1.1,0,0,1,1.089-1.106h.009a1.1,1.1,0,0,1,1.1,1.089l.04,4.852a1.1,1.1,0,0,1-1.1,1.106Z" transform="translate(-397.985 -73.804)" fill="#71b7bf"/><path d="M421.076,220.942a1.1,1.1,0,0,1-.325-2.146,31.548,31.548,0,0,0,20.175-41.472,1.1,1.1,0,1,1,2.046-.791A33.739,33.739,0,0,1,421.4,220.892a1.087,1.087,0,0,1-.325.05Z" transform="translate(-302.662 -146.118)" fill="#71b7bf"/><path d="M415.038,494.435a1.088,1.088,0,0,1-.445-.1l-4.451-1.98a1.1,1.1,0,0,1-.475-1.6l2.641-4.078a1.1,1.1,0,0,1,1.842,1.193l-1.943,3,3.278,1.458a1.1,1.1,0,0,1-.448,2.1Z" transform="translate(-293.49 -417.546)" fill="#71b7bf"/><path d="M114.335,213.006A33.878,33.878,0,0,1,80.42,179.239c0-4.147,1.971-9.236,3.41-12.954l.2-.507a1.1,1.1,0,0,1,2.048.79l-.2.509c-1.377,3.557-3.262,8.426-3.262,12.162a31.683,31.683,0,0,0,31.722,31.572c.439,0,.878-.009,1.313-.026a1.1,1.1,0,1,1,.09,2.193q-.7.029-1.4.028Z" transform="translate(-5.688 -136.712)" fill="#71b7bf"/><path d="M81.426,171.885a1.1,1.1,0,0,1-1-.65l-1.6-3.56-3.32,1.678a1.1,1.1,0,0,1-.991-1.959l4.347-2.2a1.1,1.1,0,0,1,1.5.531l2.065,4.61a1.1,1.1,0,0,1-1,1.546Z" transform="translate(0 -136.714)" fill="#71b7bf"/><path d="M318.116,156.929a1.1,1.1,0,0,1-.614-.188l-3.442-2.328-3.442,2.327a1.1,1.1,0,0,1-1.712-.909V141.267a1.1,1.1,0,0,1,1.1-1.1h8.114a1.1,1.1,0,0,1,1.1,1.1V155.83a1.1,1.1,0,0,1-1.1,1.1Zm-4.057-4.937a1.1,1.1,0,0,1,.614.188l2.345,1.585v-11.4H311.1v11.4l2.345-1.585a1.1,1.1,0,0,1,.615-.189Z" transform="translate(-205.519 -114.928)" fill="#71b7bf"/><path d="M240.644,226.02h-34.05a1.1,1.1,0,0,1-1.1-1.1v-25.6a1.1,1.1,0,0,1,2.195,0v24.5h31.856v-24.5a1.1,1.1,0,0,1,2.195,0v25.6A1.1,1.1,0,0,1,240.644,226.02Z" transform="translate(-115.078 -165.707)" fill="#71b7bf"/><path d="M387.666,149.654H374.7a1.1,1.1,0,0,1-1.1-1.1v-7.282a1.1,1.1,0,0,1,1.1-1.1h12.969a1.1,1.1,0,0,1,1.1,1.1v7.282a1.1,1.1,0,0,1-1.1,1.1Zm-11.871-2.195h10.774v-5.087H375.8Z" transform="translate(-262.1 -114.935)" fill="#71b7bf"/><path d="M219.556,149.654H206.587a1.1,1.1,0,0,1-1.1-1.1v-7.282a1.1,1.1,0,0,1,1.1-1.1h12.969a1.1,1.1,0,0,1,1.1,1.1v7.282a1.1,1.1,0,0,1-1.1,1.1Zm-11.871-2.195h10.774v-5.087H207.685Z" transform="translate(-115.073 -114.935)" fill="#71b7bf"/><path d="M310.727,312.772a1.1,1.1,0,0,1-1.1-1.1v-7.253a1.1,1.1,0,1,1,2.195,0v7.253A1.1,1.1,0,0,1,310.727,312.772Z" transform="translate(-206.153 -257.621)" fill="#71b7bf"/><path d="M294.973,301.8a1.1,1.1,0,0,1-.828-.376l-1.779-2.044-1.859,2.008a1.1,1.1,0,0,1-1.611-1.492l2.689-2.9a1.153,1.153,0,0,1,.822-.351,1.1,1.1,0,0,1,.811.376l2.582,2.966a1.1,1.1,0,0,1-.827,1.818Z" transform="translate(-187.763 -251.774)" fill="#71b7bf"/><path d="M376.647,306.1a1.1,1.1,0,0,1-1.1-1.1v-7.253a1.1,1.1,0,1,1,2.195,0V305A1.1,1.1,0,0,1,376.647,306.1Z" transform="translate(-263.806 -251.787)" fill="#71b7bf"/><path d="M358.223,342.661a1.1,1.1,0,0,1-.827-.378l-2.581-2.966a1.1,1.1,0,1,1,1.656-1.441l1.723,1.98,1.532-1.889a1.1,1.1,0,1,1,1.705,1.383l-2.355,2.9a1.1,1.1,0,0,1-.833.406h-.021Z" transform="translate(-245.435 -287.51)" fill="#71b7bf"/></g></g></svg>