<svg xmlns="http://www.w3.org/2000/svg" xmlns:xlink="http://www.w3.org/1999/xlink" width="108" height="111" viewBox="0 0 108 111"><defs><filter id="a" x="0" y="0" width="108" height="111" filterUnits="userSpaceOnUse"><feOffset dy="3" input="SourceAlpha"/><feGaussianBlur stdDeviation="3" result="b"/><feFlood flood-opacity="0.161"/><feComposite operator="in" in2="b"/><feComposite in="SourceGraphic"/></filter></defs><g transform="translate(9 6)"><g transform="matrix(1, 0, 0, 1, -9, -6)" filter="url(#a)"><rect width="90" height="93" rx="20" transform="translate(9 6)" fill="#fff"/></g><g transform="translate(-89.249 -42.824)"><path d="M307.63,296.067a1.131,1.131,0,0,1-.837-1.889c.272-.306.781-1.131.554-1.617-.1-.226-.882-1.38-5.972-1.38-3.8,0-6.041-.894-6.843-2.726-1.21-2.771,1.81-6.142,2.16-6.527a1.132,1.132,0,0,1,1.662,1.538c-.781.848-2.262,2.964-1.753,4.083.385.871,2.126,1.368,4.774,1.368,4.592,0,7.228.894,8.042,2.726s-.758,3.846-.95,4.061h0a1.132,1.132,0,0,1-.837.362Z" transform="translate(-167.534 -190.892)" fill="#71b7bf"/><path d="M374.3,289.171a1.131,1.131,0,0,1-.452-2.16c1.131-.486,1.029-.939,1-1.131a3.042,3.042,0,0,0-2.013-1.866,1.131,1.131,0,0,1,0-2.262,5.056,5.056,0,0,1,4.231,3.676c.147.724.215,2.545-2.262,3.631a1.023,1.023,0,0,1-.5.113Z" transform="translate(-234.188 -191.845)" fill="#71b7bf"/><path d="M342.381,120a1.131,1.131,0,0,1-1.131-1.131V102.7a1.131,1.131,0,0,1,1.131-1.131,8.213,8.213,0,0,0,8.19-8.212,1.131,1.131,0,0,1,1.131-1.131h22.351a1.131,1.131,0,0,1,1.131,1.131c0,3.156-2.828,5.769-6.493,6.176a5.982,5.982,0,0,1-2.194,3.393,8.067,8.067,0,0,1-4.174,1.674,5.982,5.982,0,0,1-2.194,3.393,8.065,8.065,0,0,1-4.174,1.719,5.928,5.928,0,0,1-2.195,3.393,7.922,7.922,0,0,1-3.789,1.629,6,6,0,0,1-2.262,3.484A8.753,8.753,0,0,1,342.381,120Zm1.131-16.221v13.857a6.206,6.206,0,0,0,2.782-1.131,3.832,3.832,0,0,0,1.414-1.946,1.131,1.131,0,0,1,.848-1.889,6.151,6.151,0,0,0,3.8-1.244,3.5,3.5,0,0,0,1.448-2.726,1.131,1.131,0,0,1,1.131-1.131,6.072,6.072,0,0,0,3.789-1.244,3.471,3.471,0,0,0,1.448-2.726,1.131,1.131,0,0,1,1.131-1.131,6.077,6.077,0,0,0,3.789-1.244,3.506,3.506,0,0,0,1.448-2.726,1.131,1.131,0,0,1,1.131-1.131,5.282,5.282,0,0,0,5.034-2.839h-19.93a10.486,10.486,0,0,1-9.264,9.253Z" transform="translate(-203.778 -31.697)" fill="#71b7bf"/><path d="M516.549,133.952h-3.189a1.131,1.131,0,0,1,0-2.262h3.189a1.131,1.131,0,1,1,0,2.262Z" transform="translate(-352.654 -64.573)" fill="#71b7bf"/><path d="M467.285,173.412H464.1a1.131,1.131,0,1,1,0-2.262h3.19a1.131,1.131,0,1,1,0,2.262Z" transform="translate(-311.782 -98.159)" fill="#71b7bf"/><path d="M418.015,212.872h-3.19a1.131,1.131,0,1,1,0-2.262h3.19a1.131,1.131,0,0,1,0,2.262Z" transform="translate(-269.893 -131.745)" fill="#71b7bf"/><path d="M371.41,252.332h-2.782a1.131,1.131,0,1,1,0-2.262h2.794a1.131,1.131,0,1,1,0,2.262Z" transform="translate(-230.652 -165.331)" fill="#71b7bf"/><path d="M129.052,119.766h-.192a8.315,8.315,0,0,1-5.2-1.742,5.882,5.882,0,0,1-2.194-3.473,8.007,8.007,0,0,1-3.8-1.674,5.963,5.963,0,0,1-2.183-3.393,8.051,8.051,0,0,1-4.185-1.686,5.961,5.961,0,0,1-2.183-3.393,8.051,8.051,0,0,1-4.185-1.708,5.96,5.96,0,0,1-2.183-3.393,8.049,8.049,0,0,1-4.231-1.686,5.756,5.756,0,0,1-2.262-4.525,1.131,1.131,0,0,1,1.131-1.131h22.351a1.131,1.131,0,0,1,1.131,1.131,8.213,8.213,0,0,0,8.19,8.246,1.131,1.131,0,0,1,1.131,1.131v16.164a1.131,1.131,0,0,1-1.131,1.131Zm-5.339-5.475a3.835,3.835,0,0,0,1.357,1.979,5.918,5.918,0,0,0,2.851,1.131V103.545a10.485,10.485,0,0,1-9.264-9.286H98.727a3.9,3.9,0,0,0,1.222,1.651,6.211,6.211,0,0,0,3.812,1.244,1.131,1.131,0,0,1,1.131,1.131,3.5,3.5,0,0,0,1.448,2.726,6.071,6.071,0,0,0,3.789,1.244,1.131,1.131,0,0,1,1.131,1.131,3.472,3.472,0,0,0,1.448,2.7,6.072,6.072,0,0,0,3.789,1.244,1.131,1.131,0,0,1,1.131,1.131,3.5,3.5,0,0,0,1.448,2.726,6.151,6.151,0,0,0,3.8,1.244,1.1,1.1,0,0,1,.837,1.855Z" transform="translate(0 -31.466)" fill="#71b7bf"/><path d="M149.919,133.952h-3.189a1.131,1.131,0,1,1,0-2.262h3.189a1.131,1.131,0,1,1,0,2.262Z" transform="translate(-42.97 -64.573)" fill="#71b7bf"/><path d="M199.185,173.412H196a1.131,1.131,0,1,1,0-2.262h3.19a1.131,1.131,0,1,1,0,2.262Z" transform="translate(-83.843 -98.159)" fill="#71b7bf"/><path d="M248.445,212.872h-3.19a1.131,1.131,0,0,1,0-2.262h3.19a1.131,1.131,0,1,1,0,2.262Z" transform="translate(-125.724 -131.745)" fill="#71b7bf"/><path d="M297.391,252.332h-2.782a1.131,1.131,0,0,1,0-2.262h2.782a1.131,1.131,0,0,1,0,2.262Z" transform="translate(-167.711 -165.331)" fill="#71b7bf"/><path d="M314.931,369.88a1.138,1.138,0,0,1-.826-1.9,1.13,1.13,0,0,0,.306-.633s-.475-.724-3.846-.724c-2.047,0-4.864-.215-5.656-2.059-.679-1.651.848-3.235,1.029-3.393h0a1.132,1.132,0,1,1,1.595,1.606,1.708,1.708,0,0,0-.532.939s.441.656,3.529.656c3.393,0,5.294.668,5.916,2.082a3.043,3.043,0,0,1-.712,3.077,1.129,1.129,0,0,1-.8.35Z" transform="translate(-176.746 -258.786)" fill="#71b7bf"/><path d="M323.681,415.3a1.062,1.062,0,0,1-.713-.26,1.132,1.132,0,0,1-.339-1.267,7,7,0,0,0-1.866-.147c-1.991,0-3.314-.52-3.959-1.55a2.883,2.883,0,0,1-.113-2.647,1.133,1.133,0,1,1,2.047.973c0,.068-.113.339,0,.475s.374.486,2.025.486c1.448,0,3.393.147,4.072,1.482a2.013,2.013,0,0,1-.305,2.081,1.131,1.131,0,0,1-.848.373Z" transform="translate(-186.945 -298.893)" fill="#71b7bf"/><path d="M310.61,67.52a5.86,5.86,0,1,1,4.132-1.716A5.848,5.848,0,0,1,310.61,67.52Zm0-9.434a3.586,3.586,0,1,0,2.535,1.05A3.585,3.585,0,0,0,310.61,58.086Z" transform="translate(-176.783 0)" fill="#71b7bf"/><path d="M342.381,177.257a1.131,1.131,0,0,1-1.131-1.131V129.851a1.131,1.131,0,0,1,2.262,0v46.275a1.131,1.131,0,0,1-1.131,1.131Z" transform="translate(-208.554 -55.035)" fill="#71b7bf"/></g></g></svg>