<svg xmlns="http://www.w3.org/2000/svg" xmlns:xlink="http://www.w3.org/1999/xlink" width="108" height="111" viewBox="0 0 108 111"><defs><filter id="a" x="0" y="0" width="108" height="111" filterUnits="userSpaceOnUse"><feOffset dy="3" input="SourceAlpha"/><feGaussianBlur stdDeviation="3" result="b"/><feFlood flood-opacity="0.161"/><feComposite operator="in" in2="b"/><feComposite in="SourceGraphic"/></filter></defs><g transform="translate(9 6)"><g transform="matrix(1, 0, 0, 1, -9, -6)" filter="url(#a)"><rect width="90" height="93" rx="20" transform="translate(9 6)" fill="#fff"/></g><g transform="translate(-90.991 -10.57)"><path d="M509.314,158.712H509.3v-8.074a4.2,4.2,0,0,1,3.756,3.978.712.712,0,0,0,.2.5.726.726,0,0,0,.54.244.742.742,0,0,0,.74-.74,5.7,5.7,0,0,0-5.235-5.472V141.27l3.054,5.295a.742.742,0,1,0,1.286-.739l-5.072-8.792-5.072,8.792a.742.742,0,1,0,1.286.74l3.054-5.295v7.882a5.478,5.478,0,0,0-.015,10.944l.015-.015v8.082a4.2,4.2,0,0,1-3.756-3.978.712.712,0,0,0-.2-.5.726.726,0,0,0-.54-.244.742.742,0,0,0-.74.74,5.7,5.7,0,0,0,5.235,5.472v3.66a.74.74,0,0,0,1.479,0v-3.66a5.478,5.478,0,0,0,0-10.945Zm-.015,9.45V160.2a3.989,3.989,0,0,1,0,7.964Zm-1.479-17.524V158.6a3.989,3.989,0,0,1,0-7.964Z" transform="translate(-345.977 -99.35)" fill="#71b7bf"/><path d="M114.461,154.629a.712.712,0,0,0,.2.5.726.726,0,0,0,.54.244.742.742,0,0,0,.74-.74,5.7,5.7,0,0,0-5.235-5.472v-7.882l3.054,5.295a.742.742,0,1,0,1.286-.739l-5.072-8.792-5.087,8.784a.742.742,0,0,0,1.286.74l3.054-5.295v7.882a5.478,5.478,0,0,0-.015,10.944l.015-.015v8.082a4.2,4.2,0,0,1-3.756-3.978.712.712,0,0,0-.2-.5.726.726,0,0,0-.54-.244.742.742,0,0,0-.74.74,5.7,5.7,0,0,0,5.235,5.472v3.66a.74.74,0,0,0,1.479,0v-3.66a5.478,5.478,0,0,0,.015-10.944h-.015v-8.067a4.206,4.206,0,0,1,3.756,3.986Zm-3.756,13.539V160.2a3.989,3.989,0,0,1,0,7.964Zm-1.479-9.561a3.985,3.985,0,0,1,0-7.956Z" transform="translate(0 -99.354)" fill="#71b7bf"/><path d="M301.394,37.358A7.394,7.394,0,1,0,294,29.964,7.407,7.407,0,0,0,301.394,37.358Zm0-13.31a5.916,5.916,0,1,1-5.916,5.916,5.924,5.924,0,0,1,5.916-5.916Z" transform="translate(-164.921)" fill="#71b7bf"/><path d="M257.892,163.18c-7.727,0-14.012,9.147-14.012,20.394a.74.74,0,0,0,1.479,0c0-10.426,5.619-18.915,12.533-18.915s12.533,8.481,12.533,18.915a.74.74,0,1,0,1.479,0c0-11.239-6.286-20.394-14.013-20.394Z" transform="translate(-121.418 -122.044)" fill="#71b7bf"/><path d="M300.21,323.724a.74.74,0,0,0,1.479,0V293.519h10.189v30.205a.74.74,0,0,0,1.479,0V292.04H300.21Z" transform="translate(-170.311 -233.889)" fill="#71b7bf"/></g></g></svg>